# xmcd
#
# Track frame offsets:
#	150
#	9473
#	20444
#	48286
#	65792
#	88365
#	104351
#	127442
#	160463
#	189564
#
# Disc length: 2720 seconds
#
# Revision: 1
# Processed by: cddbd v1.4PL0 Copyright (c) Steve Scherf et al.
# Submitted via: audiograbber 1.82.01
#
DISCID=900a9e0a
DTITLE=Gamble Rogers - Oklawaha County Laissez-Faire
DYEAR=1900
DGENRE=Country
TTITLE0=Orange Blossom Special (Beginning)
TTITLE1=The Philosophers
TTITLE2=Nine Pound Hammer
TTITLE3=Dogs and Dawgs
TTITLE4=Cape Canaveral Talking Blues
TTITLE5=Two Little Boys
TTITLE6=Sunday Afternoon
TTITLE7=The Terminal Tavern
TTITLE8=Penrod and Elfrieda
TTITLE9=Orange Blossom Special (Finale)
EXTD=
EXTT0=
EXTT1=
EXTT2=
EXTT3=
EXTT4=
EXTT5=
EXTT6=
EXTT7=
EXTT8=
EXTT9=
PLAYORDER=
